%TF.GenerationSoftware,KiCad,Pcbnew,9.0.7*%
%TF.CreationDate,2026-02-27T12:11:23+01:00*%
%TF.ProjectId,Voltage_Doubler,566f6c74-6167-4655-9f44-6f75626c6572,1.0*%
%TF.SameCoordinates,Original*%
%TF.FileFunction,Copper,L1,Top*%
%TF.FilePolarity,Positive*%
%FSLAX46Y46*%
G04 Gerber Fmt 4.6, Leading zero omitted, Abs format (unit mm)*
G04 Created by KiCad (PCBNEW 9.0.7) date 2026-02-27 12:11:23*
%MOMM*%
%LPD*%
G01*
G04 APERTURE LIST*
G04 Aperture macros list*
%AMRoundRect*
0 Rectangle with rounded corners*
0 $1 Rounding radius*
0 $2 $3 $4 $5 $6 $7 $8 $9 X,Y pos of 4 corners*
0 Add a 4 corners polygon primitive as box body*
4,1,4,$2,$3,$4,$5,$6,$7,$8,$9,$2,$3,0*
0 Add four circle primitives for the rounded corners*
1,1,$1+$1,$2,$3*
1,1,$1+$1,$4,$5*
1,1,$1+$1,$6,$7*
1,1,$1+$1,$8,$9*
0 Add four rect primitives between the rounded corners*
20,1,$1+$1,$2,$3,$4,$5,0*
20,1,$1+$1,$4,$5,$6,$7,0*
20,1,$1+$1,$6,$7,$8,$9,0*
20,1,$1+$1,$8,$9,$2,$3,0*%
G04 Aperture macros list end*
%ADD10C,0.300000*%
%TA.AperFunction,NonConductor*%
%ADD11C,0.300000*%
%TD*%
%TA.AperFunction,NonConductor*%
%ADD12C,0.200000*%
%TD*%
%TA.AperFunction,SMDPad,CuDef*%
%ADD13RoundRect,0.150000X0.150000X-0.725000X0.150000X0.725000X-0.150000X0.725000X-0.150000X-0.725000X0*%
%TD*%
%TA.AperFunction,ComponentPad*%
%ADD14C,1.400000*%
%TD*%
%TA.AperFunction,ComponentPad*%
%ADD15C,0.850000*%
%TD*%
%TA.AperFunction,ComponentPad*%
%ADD16R,0.850000X0.850000*%
%TD*%
%TA.AperFunction,ComponentPad*%
%ADD17C,2.800000*%
%TD*%
%TA.AperFunction,ComponentPad*%
%ADD18RoundRect,0.250001X1.149999X1.149999X-1.149999X1.149999X-1.149999X-1.149999X1.149999X-1.149999X0*%
%TD*%
%TA.AperFunction,ComponentPad*%
%ADD19RoundRect,0.250001X-1.149999X-1.149999X1.149999X-1.149999X1.149999X1.149999X-1.149999X1.149999X0*%
%TD*%
%TA.AperFunction,ComponentPad*%
%ADD20C,1.200000*%
%TD*%
%TA.AperFunction,ComponentPad*%
%ADD21C,1.600000*%
%TD*%
%TA.AperFunction,ViaPad*%
%ADD22C,0.600000*%
%TD*%
%TA.AperFunction,Conductor*%
%ADD23C,0.200000*%
%TD*%
G04 APERTURE END LIST*
D10*
D11*
X668768796Y-297800828D02*
X668625939Y-297729400D01*
X668625939Y-297729400D02*
X668554510Y-297657971D01*
X668554510Y-297657971D02*
X668483082Y-297515114D01*
X668483082Y-297515114D02*
X668483082Y-297086542D01*
X668483082Y-297086542D02*
X668554510Y-296943685D01*
X668554510Y-296943685D02*
X668625939Y-296872257D01*
X668625939Y-296872257D02*
X668768796Y-296800828D01*
X668768796Y-296800828D02*
X668983082Y-296800828D01*
X668983082Y-296800828D02*
X669125939Y-296872257D01*
X669125939Y-296872257D02*
X669197368Y-296943685D01*
X669197368Y-296943685D02*
X669268796Y-297086542D01*
X669268796Y-297086542D02*
X669268796Y-297515114D01*
X669268796Y-297515114D02*
X669197368Y-297657971D01*
X669197368Y-297657971D02*
X669125939Y-297729400D01*
X669125939Y-297729400D02*
X668983082Y-297800828D01*
X668983082Y-297800828D02*
X668768796Y-297800828D01*
X670554511Y-296800828D02*
X670554511Y-297800828D01*
X669911653Y-296800828D02*
X669911653Y-297586542D01*
X669911653Y-297586542D02*
X669983082Y-297729400D01*
X669983082Y-297729400D02*
X670125939Y-297800828D01*
X670125939Y-297800828D02*
X670340225Y-297800828D01*
X670340225Y-297800828D02*
X670483082Y-297729400D01*
X670483082Y-297729400D02*
X670554511Y-297657971D01*
X671054511Y-296800828D02*
X671625939Y-296800828D01*
X671268796Y-296300828D02*
X671268796Y-297586542D01*
X671268796Y-297586542D02*
X671340225Y-297729400D01*
X671340225Y-297729400D02*
X671483082Y-297800828D01*
X671483082Y-297800828D02*
X671625939Y-297800828D01*
X672125939Y-296800828D02*
X672125939Y-298300828D01*
X672125939Y-296872257D02*
X672268797Y-296800828D01*
X672268797Y-296800828D02*
X672554511Y-296800828D01*
X672554511Y-296800828D02*
X672697368Y-296872257D01*
X672697368Y-296872257D02*
X672768797Y-296943685D01*
X672768797Y-296943685D02*
X672840225Y-297086542D01*
X672840225Y-297086542D02*
X672840225Y-297515114D01*
X672840225Y-297515114D02*
X672768797Y-297657971D01*
X672768797Y-297657971D02*
X672697368Y-297729400D01*
X672697368Y-297729400D02*
X672554511Y-297800828D01*
X672554511Y-297800828D02*
X672268797Y-297800828D01*
X672268797Y-297800828D02*
X672125939Y-297729400D01*
X674125940Y-296800828D02*
X674125940Y-297800828D01*
X673483082Y-296800828D02*
X673483082Y-297586542D01*
X673483082Y-297586542D02*
X673554511Y-297729400D01*
X673554511Y-297729400D02*
X673697368Y-297800828D01*
X673697368Y-297800828D02*
X673911654Y-297800828D01*
X673911654Y-297800828D02*
X674054511Y-297729400D01*
X674054511Y-297729400D02*
X674125940Y-297657971D01*
X674625940Y-296800828D02*
X675197368Y-296800828D01*
X674840225Y-296300828D02*
X674840225Y-297586542D01*
X674840225Y-297586542D02*
X674911654Y-297729400D01*
X674911654Y-297729400D02*
X675054511Y-297800828D01*
X675054511Y-297800828D02*
X675197368Y-297800828D01*
D10*
D11*
X668804510Y-283300828D02*
X668804510Y-282300828D01*
X668804510Y-281800828D02*
X668733082Y-281872257D01*
X668733082Y-281872257D02*
X668804510Y-281943685D01*
X668804510Y-281943685D02*
X668875939Y-281872257D01*
X668875939Y-281872257D02*
X668804510Y-281800828D01*
X668804510Y-281800828D02*
X668804510Y-281943685D01*
X669518796Y-282300828D02*
X669518796Y-283300828D01*
X669518796Y-282443685D02*
X669590225Y-282372257D01*
X669590225Y-282372257D02*
X669733082Y-282300828D01*
X669733082Y-282300828D02*
X669947368Y-282300828D01*
X669947368Y-282300828D02*
X670090225Y-282372257D01*
X670090225Y-282372257D02*
X670161654Y-282515114D01*
X670161654Y-282515114D02*
X670161654Y-283300828D01*
X670875939Y-282300828D02*
X670875939Y-283800828D01*
X670875939Y-282372257D02*
X671018797Y-282300828D01*
X671018797Y-282300828D02*
X671304511Y-282300828D01*
X671304511Y-282300828D02*
X671447368Y-282372257D01*
X671447368Y-282372257D02*
X671518797Y-282443685D01*
X671518797Y-282443685D02*
X671590225Y-282586542D01*
X671590225Y-282586542D02*
X671590225Y-283015114D01*
X671590225Y-283015114D02*
X671518797Y-283157971D01*
X671518797Y-283157971D02*
X671447368Y-283229400D01*
X671447368Y-283229400D02*
X671304511Y-283300828D01*
X671304511Y-283300828D02*
X671018797Y-283300828D01*
X671018797Y-283300828D02*
X670875939Y-283229400D01*
X672875940Y-282300828D02*
X672875940Y-283300828D01*
X672233082Y-282300828D02*
X672233082Y-283086542D01*
X672233082Y-283086542D02*
X672304511Y-283229400D01*
X672304511Y-283229400D02*
X672447368Y-283300828D01*
X672447368Y-283300828D02*
X672661654Y-283300828D01*
X672661654Y-283300828D02*
X672804511Y-283229400D01*
X672804511Y-283229400D02*
X672875940Y-283157971D01*
X673375940Y-282300828D02*
X673947368Y-282300828D01*
X673590225Y-281800828D02*
X673590225Y-283086542D01*
X673590225Y-283086542D02*
X673661654Y-283229400D01*
X673661654Y-283229400D02*
X673804511Y-283300828D01*
X673804511Y-283300828D02*
X673947368Y-283300828D01*
D12*
X639500000Y-299000000D02*
X639500000Y-276000000D01*
X675500000Y-299000000D02*
X639500000Y-299000000D01*
X675500000Y-276000000D02*
X675500000Y-299000000D01*
X639500000Y-276000000D02*
X675500000Y-276000000D01*
D13*
%TO.P,U1,1,GND*%
%TO.N,GND*%
X655500000Y-285000000D03*
%TO.P,U1,2,TRIG*%
%TO.N,Net-(U1-THRES)*%
X656770000Y-285000000D03*
%TO.P,U1,3,OUT*%
%TO.N,Net-(U1-OUT)*%
X658040000Y-285000000D03*
%TO.P,U1,4,~{RST}*%
%TO.N,+5V*%
X659310000Y-285000000D03*
%TO.P,U1,5,CONT*%
%TO.N,Net-(U1-CONT)*%
X659310000Y-279850000D03*
%TO.P,U1,6,THRES*%
%TO.N,Net-(U1-THRES)*%
X658040000Y-279850000D03*
%TO.P,U1,7,DISCH*%
%TO.N,Net-(U1-DISCH)*%
X656770000Y-279850000D03*
%TO.P,U1,8,VCC*%
%TO.N,+5V*%
X655500000Y-279850000D03*
%TD*%
D14*
%TO.P,R2,2*%
%TO.N,Net-(U1-THRES)*%
X640960000Y-296000000D03*
%TO.P,R2,1*%
%TO.N,Net-(U1-DISCH)*%
X646040000Y-296000000D03*
%TD*%
%TO.P,R1,1*%
%TO.N,+5V*%
X640920000Y-292000000D03*
%TO.P,R1,2*%
%TO.N,Net-(U1-DISCH)*%
X646000000Y-292000000D03*
%TD*%
D15*
%TO.P,J2,2,Pin_2*%
%TO.N,GND*%
X668875000Y-294500000D03*
D16*
%TO.P,J2,1,Pin_1*%
%TO.N,+5V*%
X668875000Y-293500000D03*
%TD*%
%TO.P,J1,1,Pin_1*%
%TO.N,Net-(D2-K)*%
X672000000Y-280375000D03*
D15*
%TO.P,J1,2,Pin_2*%
%TO.N,GND*%
X672000000Y-279375000D03*
%TD*%
D17*
%TO.P,D2,2,A*%
%TO.N,Net-(D1-K)*%
X641920000Y-286500000D03*
D18*
%TO.P,D2,1,K*%
%TO.N,Net-(D2-K)*%
X652080000Y-286500000D03*
%TD*%
D17*
%TO.P,D1,2,A*%
%TO.N,+5V*%
X652000000Y-279500000D03*
D19*
%TO.P,D1,1,K*%
%TO.N,Net-(D1-K)*%
X641840000Y-279500000D03*
%TD*%
D20*
%TO.P,C4,1*%
%TO.N,Net-(D2-K)*%
X658000000Y-294750000D03*
%TO.P,C4,2*%
%TO.N,GND*%
X658000000Y-293250000D03*
%TD*%
%TO.P,C3,1*%
%TO.N,Net-(D1-K)*%
X649500000Y-294000000D03*
%TO.P,C3,2*%
%TO.N,Net-(U1-OUT)*%
X651000000Y-294000000D03*
%TD*%
D21*
%TO.P,C2,2*%
%TO.N,GND*%
X667250000Y-285000000D03*
%TO.P,C2,1*%
%TO.N,Net-(U1-THRES)*%
X664750000Y-285000000D03*
%TD*%
%TO.P,C1,1*%
%TO.N,GND*%
X667000000Y-280000000D03*
%TO.P,C1,2*%
%TO.N,Net-(U1-CONT)*%
X664500000Y-280000000D03*
%TD*%
D22*
%TO.N,Net-(U1-DISCH)*%
X656206358Y-281107829D03*
%TO.N,Net-(U1-OUT)*%
X652500000Y-291750000D03*
X657500000Y-289000000D03*
%TO.N,+5V*%
X656250000Y-282000000D03*
X658250000Y-283500000D03*
X661750000Y-289500000D03*
%TO.N,Net-(U1-THRES)*%
X656750000Y-290500000D03*
%TD*%
D23*
%TO.N,Net-(U1-DISCH)*%
X656206358Y-281107829D02*
X656770000Y-280544187D01*
X656770000Y-280544187D02*
X656770000Y-279850000D01*
%TO.N,Net-(U1-OUT)*%
X652500000Y-291750000D02*
X651000000Y-293250000D01*
X651000000Y-293250000D02*
X651000000Y-294000000D01*
X658040000Y-285000000D02*
X658040000Y-288460000D01*
X658040000Y-288460000D02*
X657500000Y-289000000D01*
%TO.N,+5V*%
X655500000Y-279850000D02*
X655500000Y-281250000D01*
X655500000Y-281250000D02*
X656250000Y-282000000D01*
X659310000Y-284560000D02*
X659310000Y-285000000D01*
X658250000Y-283500000D02*
X659310000Y-284560000D01*
%TO.N,Net-(U1-THRES)*%
X664750000Y-285000000D02*
X662315001Y-285000000D01*
X662315001Y-285000000D02*
X658040000Y-280724999D01*
X658040000Y-280724999D02*
X658040000Y-279850000D01*
X656770000Y-285000000D02*
X656770000Y-283230000D01*
X656770000Y-283230000D02*
X658040000Y-281960000D01*
X658040000Y-281960000D02*
X658040000Y-279850000D01*
%TO.N,+5V*%
X661750000Y-289500000D02*
X659310000Y-287060000D01*
X659310000Y-287060000D02*
X659310000Y-285000000D01*
%TO.N,GND*%
X667250000Y-285000000D02*
X659000000Y-293250000D01*
X659000000Y-293250000D02*
X658000000Y-293250000D01*
X667250000Y-285000000D02*
X667250000Y-284750000D01*
X667250000Y-284750000D02*
X667000000Y-284500000D01*
X667000000Y-284500000D02*
X667000000Y-280000000D01*
X672000000Y-279375000D02*
X667625000Y-279375000D01*
X667625000Y-279375000D02*
X667000000Y-280000000D01*
%TO.N,Net-(U1-CONT)*%
X664500000Y-280000000D02*
X664250000Y-280000000D01*
X664250000Y-280000000D02*
X664100000Y-279850000D01*
X664100000Y-279850000D02*
X659310000Y-279850000D01*
%TO.N,+5V*%
X652000000Y-279500000D02*
X655150000Y-279500000D01*
X655150000Y-279500000D02*
X655500000Y-279850000D01*
%TO.N,Net-(U1-THRES)*%
X656750000Y-290500000D02*
X656770000Y-290480000D01*
X656770000Y-290480000D02*
X656770000Y-285000000D01*
%TO.N,Net-(D2-K)*%
X658000000Y-294750000D02*
X663250000Y-294750000D01*
X663250000Y-294750000D02*
X672000000Y-286000000D01*
X672000000Y-286000000D02*
X672000000Y-280375000D01*
X658000000Y-294750000D02*
X656750000Y-294750000D01*
X652080000Y-290080000D02*
X652080000Y-286500000D01*
X656750000Y-294750000D02*
X652080000Y-290080000D01*
%TO.N,Net-(D1-K)*%
X645000000Y-289500000D02*
X643000000Y-289500000D01*
X649500000Y-294000000D02*
X645000000Y-289500000D01*
X643000000Y-289500000D02*
X641920000Y-288420000D01*
X641920000Y-288420000D02*
X641920000Y-286500000D01*
%TO.N,Net-(U1-DISCH)*%
X646040000Y-296000000D02*
X646040000Y-292040000D01*
X646040000Y-292040000D02*
X646000000Y-292000000D01*
%TO.N,GND*%
X655500000Y-285000000D02*
X655500000Y-290750000D01*
X655500000Y-290750000D02*
X658000000Y-293250000D01*
%TO.N,Net-(D1-K)*%
X641840000Y-279500000D02*
X641840000Y-286420000D01*
X641840000Y-286420000D02*
X641920000Y-286500000D01*
%TD*%
M02*
